<svg xmlns="http://www.w3.org/2000/svg" viewBox="0 0.5 28 28">
<path stroke="currentColor" d="M4 4h20M4 5h2M22 5h2M4 6h2M22 6h2M4 7h2M8 7h12M22 7h2M4 8h2M22 8h2M4 9h2M22 9h2M4 10h2M8 10h8M22 10h2M4 11h2M22 11h2M4 12h2M22 12h2M4 13h2M8 13h3M22 13h2M4 14h2M13 14h12M4 15h2M13 15h2M23 15h2M4 16h2M13 16h2M23 16h2M4 17h2M13 17h2M18 17h2M23 17h2M4 18h2M13 18h2M18 18h2M23 18h2M4 19h2M13 19h2M16 19h6M23 19h2M4 20h2M13 20h2M18 20h2M23 20h2M4 21h2M13 21h2M18 21h2M23 21h2M4 22h2M13 22h2M23 22h2M4 23h11M23 23h2M13 24h12"/></svg>