<svg xmlns="http://www.w3.org/2000/svg" viewBox="0 0 28 28">
<path stroke="currentColor" d="M4 4h9M4 5h2M11 5h2M23 5h2M4 6h2M11 6h2M22 6h2M4 7h2M11 7h2M21 7h2M4 8h2M11 8h2M20 8h2M4 9h2M11 9h2M15 9h2M19 9h2M4 10h2M11 10h2M16 10h4M4 11h2M11 11h2M17 11h2M4 12h9M4 15h9M15 15h9M4 16h2M11 16h2M15 16h2M22 16h2M4 17h2M11 17h2M15 17h2M22 17h2M4 18h2M11 18h2M15 18h2M22 18h2M4 19h2M11 19h2M15 19h2M22 19h2M4 20h2M11 20h2M15 20h2M22 20h2M4 21h2M11 21h2M15 21h2M22 21h2M4 22h2M11 22h2M15 22h2M22 22h2M4 23h9M15 23h9"/></svg>