<svg xmlns="http://www.w3.org/2000/svg" viewBox="0 0 28 28">
<path stroke="currentColor" d="M3 3h7M3 4h2M8 4h16M3 5h2M8 5h2M22 5h2M3 6h2M8 6h2M22 6h2M3 7h7M12 7h8M22 7h4M4 8h2M22 8h2M25 8h1M4 9h2M21 9h2M25 9h1M4 10h2M8 10h7M20 10h2M24 10h1M4 11h2M19 11h2M23 11h1M4 12h2M18 12h2M22 12h2M4 13h2M8 13h3M17 13h2M21 13h3M4 14h2M16 14h2M20 14h1M22 14h2M4 15h2M15 15h2M19 15h1M22 15h2M4 16h2M14 16h2M18 16h1M22 16h2M4 17h2M13 17h2M17 17h1M22 17h2M4 18h2M12 18h2M16 18h1M22 18h2M4 19h2M12 19h4M22 19h2M4 20h2M12 20h3M22 20h2M4 21h2M22 21h2M4 22h2M22 22h2M4 23h20"/></svg>