<svg xmlns="http://www.w3.org/2000/svg" viewBox="0 0.5 28 28">
<path stroke="currentColor" d="M4 4h6M12 4h12M4 5h2M8 5h2M12 5h2M22 5h2M4 6h2M8 6h2M12 6h2M22 6h2M4 7h2M8 7h2M12 7h2M22 7h2M4 8h2M8 8h2M12 8h2M22 8h2M4 9h2M8 9h2M12 9h2M22 9h2M4 10h2M8 10h2M12 10h2M22 10h2M4 11h2M8 11h2M12 11h2M22 11h2M4 12h2M8 12h2M12 12h2M22 12h2M4 13h2M8 13h2M12 13h2M22 13h2M4 14h2M8 14h2M12 14h2M22 14h2M4 15h2M8 15h2M12 15h2M22 15h2M4 16h2M8 16h2M12 16h2M22 16h2M4 17h2M8 17h2M12 17h2M22 17h2M4 18h2M8 18h2M12 18h2M22 18h2M4 19h2M8 19h2M12 19h2M22 19h2M4 20h2M8 20h2M12 20h2M22 20h2M4 21h2M8 21h2M12 21h2M22 21h2M4 22h2M8 22h2M12 22h2M22 22h2M4 23h6M12 23h12"/></svg>