<svg xmlns="http://www.w3.org/2000/svg" viewBox="0 0.5 28 28">
<path stroke="currentColor" d="M4 4h9M15 4h9M4 5h2M11 5h2M15 5h2M22 5h2M4 6h2M11 6h2M15 6h2M22 6h2M4 7h2M11 7h2M15 7h2M22 7h2M4 8h2M11 8h2M15 8h2M22 8h2M4 9h2M22 9h2M4 10h2M22 10h2M4 11h2M17 11h1M22 11h2M4 12h2M17 12h2M22 12h2M4 13h2M9 13h11M22 13h2M4 14h2M9 14h11M22 14h2M4 15h2M17 15h2M22 15h2M4 16h2M17 16h1M22 16h2M4 17h2M22 17h2M4 18h2M22 18h2M4 19h2M11 19h2M15 19h2M22 19h2M4 20h2M11 20h2M15 20h2M22 20h2M4 21h2M11 21h2M15 21h2M22 21h2M4 22h2M11 22h2M15 22h2M22 22h2M4 23h9M15 23h9"/></svg>