<svg xmlns="http://www.w3.org/2000/svg" viewBox="0 0.5 28 28">
<path stroke="currentColor" d="M13 2h2M12 3h4M4 4h5M11 4h6M19 4h5M4 5h2M13 5h2M22 5h2M4 6h2M13 6h2M22 6h2M4 7h2M13 7h2M22 7h2M4 8h5M13 8h2M19 8h5M5 9h2M21 9h2M5 10h2M21 10h2M5 11h2M21 11h2M5 12h2M10 12h2M16 12h2M21 12h2M5 13h2M11 13h2M15 13h2M21 13h2M5 14h2M12 14h4M21 14h2M5 15h2M13 15h2M21 15h2M5 16h2M12 16h4M21 16h2M5 17h2M11 17h2M15 17h2M21 17h2M5 18h2M10 18h2M16 18h2M21 18h2M5 19h2M21 19h2M5 20h2M21 20h2M5 21h2M21 21h2M5 22h2M21 22h2M5 23h18"/></svg>