<svg xmlns="http://www.w3.org/2000/svg" viewBox="0 0.5 28 28">
<path stroke="currentColor" d="M13 1h2M12 2h1M15 2h1M11 3h1M16 3h1M10 4h1M17 4h1M9 5h1M18 5h1M8 6h1M19 6h1M7 7h1M20 7h1M6 8h1M21 8h1M5 9h1M22 9h1M4 10h2M22 10h2M4 11h3M21 11h3M4 12h2M7 12h1M20 12h1M22 12h2M4 13h2M8 13h1M19 13h1M22 13h2M4 14h2M9 14h1M18 14h1M22 14h2M4 15h2M10 15h1M17 15h1M22 15h2M4 16h2M11 16h1M16 16h1M22 16h2M4 17h2M12 17h1M15 17h1M22 17h2M4 18h2M13 18h2M22 18h2M4 19h2M22 19h2M4 20h2M22 20h2M4 21h2M22 21h2M4 22h2M22 22h2M4 23h20"/></svg>