<svg xmlns="http://www.w3.org/2000/svg" viewBox="0 0.5 28 28">
<path stroke="currentColor" d="M4 4h8M16 4h8M4 5h2M11 5h2M15 5h2M22 5h2M4 6h2M12 6h4M22 6h2M4 7h2M13 7h2M22 7h2M4 8h2M13 8h2M22 8h2M4 9h2M13 9h2M22 9h2M4 10h2M13 10h2M22 10h2M4 11h2M13 11h2M22 11h2M4 12h2M13 12h2M22 12h2M4 13h2M13 13h2M22 13h2M4 14h2M13 14h2M22 14h2M4 15h2M13 15h2M22 15h2M4 16h2M13 16h2M22 16h2M4 17h2M13 17h2M22 17h2M4 18h2M13 18h2M22 18h2M4 19h2M13 19h2M22 19h2M4 20h2M13 20h2M22 20h2M4 21h2M13 21h2M22 21h2M4 22h8M13 22h2M16 22h8M11 23h6M12 24h4"/></svg>